<svg width="20" height="20" viewBox="0 0 20 20" fill="none" xmlns="http://www.w3.org/2000/svg">
<path d="M16.6666 10.8333V4.99999C16.6666 4.07952 15.9204 3.33333 14.9999 3.33333H4.99992C4.07944 3.33333 3.33325 4.07952 3.33325 4.99999V10.8333M16.6666 10.8333V15C16.6666 15.9205 15.9204 16.6667 14.9999 16.6667H4.99992C4.07944 16.6667 3.33325 15.9205 3.33325 15V10.8333M16.6666 10.8333H14.5118C14.2907 10.8333 14.0788 10.9211 13.9225 11.0774L11.9107 13.0893C11.7544 13.2455 11.5424 13.3333 11.3214 13.3333H8.67843C8.45742 13.3333 8.24545 13.2455 8.08917 13.0893L6.07733 11.0774C5.92105 10.9211 5.70909 10.8333 5.48807 10.8333H3.33325" stroke="#0496FF" stroke-width="1.5" stroke-linecap="round" stroke-linejoin="round"/>
</svg>
