<svg width="15" height="17" viewBox="0 0 15 17" fill="none" xmlns="http://www.w3.org/2000/svg">
<path d="M9.91669 12.4167H14.0834L12.9126 11.2459C12.5951 10.9284 12.4167 10.4977 12.4167 10.0487V7.41667C12.4167 5.23964 11.0253 3.38757 9.08336 2.70118V2.41667C9.08336 1.49619 8.33716 0.75 7.41669 0.75C6.49621 0.75 5.75002 1.49619 5.75002 2.41667V2.70118C3.80804 3.38757 2.41669 5.23964 2.41669 7.41667V10.0487C2.41669 10.4977 2.23831 10.9284 1.9208 11.2459L0.750023 12.4167H4.91669M9.91669 12.4167V13.25C9.91669 14.6307 8.7974 15.75 7.41669 15.75C6.03598 15.75 4.91669 14.6307 4.91669 13.25V12.4167M9.91669 12.4167H4.91669" stroke="#64748B" stroke-width="1.5" stroke-linecap="round" stroke-linejoin="round"/>
</svg>
