<svg width="17" height="17" viewBox="0 0 17 17" fill="none" xmlns="http://www.w3.org/2000/svg">
<path d="M6.85386 1.84776C7.20919 0.38408 9.29081 0.384081 9.64615 1.84776C9.87569 2.79327 10.959 3.24198 11.7898 2.73571C13.0761 1.95199 14.548 3.42392 13.7643 4.71015C13.258 5.54105 13.7067 6.62431 14.6522 6.85386C16.1159 7.20919 16.1159 9.29081 14.6522 9.64614C13.7067 9.87569 13.258 10.959 13.7643 11.7898C14.548 13.0761 13.0761 14.548 11.7898 13.7643C10.959 13.258 9.87569 13.7067 9.64615 14.6522C9.29081 16.1159 7.20919 16.1159 6.85386 14.6522C6.62431 13.7067 5.54105 13.258 4.71016 13.7643C3.42392 14.548 1.95199 13.0761 2.73571 11.7898C3.24198 10.959 2.79327 9.87569 1.84776 9.64614C0.384081 9.29081 0.38408 7.20919 1.84776 6.85386C2.79327 6.62431 3.24198 5.54105 2.73571 4.71015C1.95199 3.42392 3.42392 1.95199 4.71015 2.73571C5.54105 3.24198 6.62431 2.79327 6.85386 1.84776Z" stroke="#64748B" stroke-width="1.5" stroke-linecap="round" stroke-linejoin="round"/>
<path d="M10.75 8.25C10.75 9.63071 9.63071 10.75 8.25 10.75C6.86929 10.75 5.75 9.63071 5.75 8.25C5.75 6.86929 6.86929 5.75 8.25 5.75C9.63071 5.75 10.75 6.86929 10.75 8.25Z" stroke="#64748B" stroke-width="1.5" stroke-linecap="round" stroke-linejoin="round"/>
</svg>
